<?xml version="1.0" encoding="UTF-8" standalone="no"?>
<!-- Created with Inkscape (http://www.inkscape.org/) -->

<svg
   xmlns:dc="http://purl.org/dc/elements/1.1/"
   xmlns:cc="http://creativecommons.org/ns#"
   xmlns:rdf="http://www.w3.org/1999/02/22-rdf-syntax-ns#"
   xmlns:svg="http://www.w3.org/2000/svg"
   xmlns="http://www.w3.org/2000/svg"
   xmlns:sodipodi="http://sodipodi.sourceforge.net/DTD/sodipodi-0.dtd"
   xmlns:inkscape="http://www.inkscape.org/namespaces/inkscape"
   width="494.10181mm"
   height="98.68116mm"
   viewBox="0 0 494.10181 98.68116"
   version="1.1"
   id="svg8"
   inkscape:version="0.92.1 r"
   sodipodi:docname="SSF-logo-horizontal-white.svg">
  <defs
     id="defs2" />
  <sodipodi:namedview
     id="base"
     pagecolor="#ffffff"
     bordercolor="#666666"
     borderopacity="1.0"
     inkscape:pageopacity="0.0"
     inkscape:pageshadow="2"
     inkscape:zoom="0.35"
     inkscape:cx="1893.7357"
     inkscape:cy="-259.23021"
     inkscape:document-units="mm"
     inkscape:current-layer="layer1"
     showgrid="false"
     inkscape:window-width="2700"
     inkscape:window-height="810"
     inkscape:window-x="0"
     inkscape:window-y="23"
     inkscape:window-maximized="0" />
  <metadata
     id="metadata5">
    <rdf:RDF>
      <cc:Work
         rdf:about="">
        <dc:format>image/svg+xml</dc:format>
        <dc:type
           rdf:resource="http://purl.org/dc/dcmitype/StillImage" />
        <dc:title></dc:title>
      </cc:Work>
    </rdf:RDF>
  </metadata>
  <g
     inkscape:label="Layer 1"
     inkscape:groupmode="layer"
     id="layer1"
     transform="translate(395.21757,18.435816)">
    <g
       id="g70"
       transform="matrix(0.7733633,0,0,0.7733633,-395.21757,-18.435816)">
      <path
         inkscape:connector-curvature="0"
         style="fill:#ffffff"
         id="path111"
         d="m 636.5,91.5 v -0.9 h -8.4 v -5.199997 h 7.4 v -0.9 h -7.4 v -5.1 h 8.3 v -0.9 h -9.2 V 91.5 Z m -13.7,-9.199997 c 0,1.9 -1.6,3 -3.8,3 h -4.4 v -5.8 h 4.4 c 2.5,-0.1 3.8,1 3.8,2.8 z M 624.3,91.5 620,86.000003 c 2.2,-0.3 3.8,-1.5 3.8,-3.7 v 0 c 0,-2.2 -1.8,-3.7 -4.6,-3.7 h -5.4 V 91.6 h 1 V 86.200003 H 619 L 623.1,91.6 h 1.2 z m -14.5,-5.499997 v -7.5 h -1 v 7.6 C 608.8,89.2 607.1,90.8 604.5,90.8 c -2.7,0 -4.4,-1.8 -4.4,-4.799997 v -7.5 h -1 v 7.6 C 599.1,89.7 601.3,91.7 604.4,91.7 c 3.3,0 5.4,-2 5.4,-5.699997 m -13.3,-6.6 v -0.9 h -10 v 0.9 H 591 V 91.5 h 1 V 79.400003 Z M 586.5,91.5 v -0.9 h -7.6 V 78.500003 h -1 V 91.5 Z M 574,86.000003 v -7.5 h -1 v 7.6 C 573,89.2 571.3,90.8 568.7,90.8 c -2.7,0 -4.4,-1.8 -4.4,-4.799997 v -7.5 h -1 v 7.6 C 563.3,89.7 565.5,91.7 568.6,91.7 c 3.2,0 5.4,-2 5.4,-5.699997 M 560.8,89.5 560.2,88.9 c -1.3,1.3 -2.6,2 -4.5,2 -3.1,0 -5.5,-2.599997 -5.5,-5.799997 v 0 c 0,-3.3 2.4,-5.8 5.5,-5.8 1.9,0 3.2,0.8 4.4,1.9 l 0.7,-0.7 c -1.3,-1.2 -2.7,-2.1 -5,-2.1 -3.7,0 -6.5,3 -6.5,6.7 v 0 C 549.3,88.8 552,91.8 555.7,91.8 c 2.3,-0.1 3.8,-1 5.1,-2.3 m -20.4,2 V 78.500003 h -0.9 V 89.8 l -9,-11.299997 h -0.9 V 91.5 h 0.9 V 80.000003 L 539.6,91.5 Z M 523.8,87.000003 H 517 l 3.4,-7.5 z M 526.9,91.5 520.9,78.400003 H 520 L 514,91.5 h 1 l 1.6,-3.599997 h 7.7 L 526,91.5 Z m -13,-12.099997 v -0.9 h -10 v 0.9 h 4.5 V 91.5 h 1 V 79.400003 Z M 501.6,91.5 v -0.9 h -8.4 v -5.199997 h 7.4 v -0.9 h -7.4 v -5.1 h 8.3 v -0.9 h -9.2 V 91.5 Z M 488,88.000003 C 488,89.6 486.6,90.7 484.4,90.7 h -4.7 v -5.199997 h 4.4 c 2.5,-0.1 3.9,0.8 3.9,2.5 z m -0.8,-6.2 c 0,1.7 -1.4,2.7 -3.3,2.7 h -4.3 v -5.1 h 4.4 c 2.1,0 3.2,1 3.2,2.4 z m 1.8,6.2 v 0 c 0,-1.8 -1.4,-2.7 -2.9,-3.1 1.1,-0.4 2.2,-1.3 2.2,-3.1 v 0 c 0,-1.9 -1.7,-3.2 -4.2,-3.2 h -5.4 V 91.6 h 5.6 c 2.8,-0.1 4.7,-1.5 4.7,-3.599997 m -14.4,-9.5 h -1 V 91.5 h 1 z m -3.8,0.9 v -0.9 h -10 v 0.9 h 4.5 V 91.5 h 1 V 79.400003 Z m -18.9,2.9 c 0,1.9 -1.6,3 -3.8,3 h -4.4 v -5.8 h 4.4 c 2.4,-0.1 3.8,1 3.8,2.8 z M 453.3,91.5 449,86.000003 c 2.2,-0.3 3.8,-1.5 3.8,-3.7 v 0 c 0,-2.2 -1.8,-3.7 -4.6,-3.7 h -5.4 V 91.6 h 1 V 86.200003 H 448 L 452.1,91.6 h 1.2 z m -14.9,-6.499997 c 0,3.2 -2.3,5.799997 -5.5,5.799997 -3.2,0 -5.5,-2.599997 -5.5,-5.799997 v 0 c 0,-3.2 2.3,-5.8 5.5,-5.8 3.1,0 5.5,2.6 5.5,5.8 z m 1,0 c 0,0 0,0 0,0 0,-3.6 -2.6,-6.7 -6.5,-6.7 -3.9,0 -6.5,3.2 -6.5,6.7 v 0 c 0,3.5 2.6,6.699997 6.5,6.699997 3.9,0 6.5,-3.199997 6.5,-6.699997 m -15.2,-5.6 v -0.9 h -9.1 V 91.5 h 1 v -5.899997 h 7.3 v -0.9 h -7.3 v -5.3 z M 406.4,91.5 V 90.6 H 398 v -5.199997 h 7.4 v -0.9 H 398 v -5.1 h 8.3 v -0.9 h -9.2 V 91.5 Z M 394.3,79.400003 v -0.9 h -10 v 0.9 h 4.5 V 91.5 h 1 V 79.400003 Z m -12.7,6.6 v -7.5 h -1 v 7.6 C 380.6,89.2 378.9,90.8 376.3,90.8 c -2.7,0 -4.4,-1.8 -4.4,-4.799997 v -7.5 h -1 v 7.6 C 370.9,89.7 373.1,91.7 376.2,91.7 c 3.2,0 5.4,-2 5.4,-5.699997 m -13.3,-6.6 v -0.9 h -10 v 0.9 h 4.5 V 91.5 h 1 V 79.400003 Z m -12.9,-0.9 h -1 V 91.5 h 1 z m -3.8,0.9 v -0.9 h -10 v 0.9 h 4.5 V 91.5 h 1 V 79.400003 Z m -12.2,8.7 v 0 c 0,-1.9 -1.3,-3 -4.3,-3.6 -3.1,-0.6 -3.8,-1.5 -3.8,-2.8 v 0 c 0,-1.4 1.3,-2.4 3.2,-2.4 1.4,0 2.7,0.4 3.9,1.5 l 0.6,-0.8 c -1.3,-1.1 -2.6,-1.6 -4.4,-1.6 -2.4,0 -4.2,1.5 -4.2,3.4 v 0 c 0,2 1.3,3 4.4,3.7 2.9,0.6 3.7,1.4 3.7,2.8 v 0 C 338.5,89.8 337.2,90.9 335.2,90.9 c -1.9,0 -3.2,-0.6 -4.7,-1.9 l -0.6,0.7 c 1.6,1.4 3.1,2.1 5.2,2.1 2.5,-0.1 4.3,-1.6 4.3,-3.699997 M 326.8,91.5 V 78.500003 h -0.9 V 89.8 l -9,-11.299997 H 316 V 91.5 h 0.9 V 80.000003 L 326,91.5 Z M 312,78.500003 h -1 V 91.5 h 1 z M 302.4,91.5 v -0.9 h -7.6 V 78.500003 h -1 V 91.5 Z M 288,87.000003 h -6.8 l 3.4,-7.5 z m 3.1,4.499997 -6,-13.099997 h -0.9 L 278.2,91.5 h 1 l 1.6,-3.599997 h 7.7 L 290.2,91.5 Z m -15.7,0 V 78.500003 h -0.9 V 89.8 l -9,-11.299997 h -0.9 V 91.5 h 0.9 V 80.000003 L 274.6,91.5 Z m -15.1,-6.499997 c 0,3.2 -2.3,5.799997 -5.5,5.799997 -3.2,0 -5.5,-2.599997 -5.5,-5.799997 v 0 c 0,-3.2 2.3,-5.8 5.5,-5.8 3.1,0 5.5,2.6 5.5,5.8 z m 1,0 c 0,0 0,0 0,0 0,-3.6 -2.6,-6.7 -6.5,-6.7 -3.9,0 -6.5,3.2 -6.5,6.7 v 0 c 0,3.5 2.6,6.699997 6.5,6.699997 3.9,0 6.5,-3.199997 6.5,-6.699997 m -16.5,-6.5 h -1 V 91.5 h 1 z m -3.8,0.9 v -0.9 h -10 v 0.9 h 4.5 V 91.5 h 1 V 79.400003 Z m -13.1,7.6 h -6.8 l 3.4,-7.5 z M 231,91.5 225,78.400003 h -0.9 L 218.1,91.5 h 1 l 1.6,-3.599997 h 7.7 L 230.1,91.5 Z m -15.7,0 V 78.500003 h -0.9 V 89.8 l -9,-11.299997 h -0.9 V 91.5 h 0.9 V 80.000003 L 214.5,91.5 Z m -15.2,-9.199997 c 0,1.9 -1.6,3 -3.8,3 h -4.4 v -5.8 h 4.4 c 2.5,-0.1 3.8,1 3.8,2.8 z M 201.6,91.5 197.3,86.000003 c 2.2,-0.3 3.8,-1.5 3.8,-3.7 v 0 c 0,-2.2 -1.8,-3.7 -4.6,-3.7 h -5.4 V 91.6 h 1 v -5.399997 h 4.2 L 200.4,91.6 h 1.2 z m -13.5,0 v -0.9 h -8.4 v -5.199997 h 7.4 v -0.9 h -7.4 v -5.1 h 8.3 v -0.9 h -9.2 V 91.5 Z M 176,79.400003 v -0.9 h -10 v 0.9 h 4.5 V 91.5 h 1 V 79.400003 Z M 163.2,91.5 V 78.500003 h -0.9 V 89.8 l -9,-11.299997 h -0.9 V 91.5 h 0.9 V 80.000003 L 162.4,91.5 Z M 148.4,78.500003 h -1 V 91.5 h 1 z"
         class="st0" />
      <path
         inkscape:connector-curvature="0"
         style="fill:#ffffff"
         id="path113"
         d="m 635.8,62.000003 v 0 0 c -0.4,-0.4 -1.1,-1.3 -4.2,-4.6 l -7.5,-8 c -0.3,-0.3 -0.8,-0.9 -1.3,-1.5 -0.9,-1 -1.9,-2.2 -2.4,-2.6 v 0 c -0.1,0.3 -0.1,0.9 -0.1,1.9 v 6.6 c 0,3.4 0.2,5.6 0.6,6.3 0.2,0.3 0.7,0.5 1.6,0.6 l 1,0.1 v 0 c 0.1,0.1 0.2,0.3 0.1,0.5 0,0.1 -0.1,0.3 -0.2,0.3 v 0 0 c -1.6,-0.1 -2.6,-0.1 -3.8,-0.1 -1.4,0 -2.2,0 -3.3,0.1 v 0 0 c -0.1,-0.1 -0.2,-0.2 -0.2,-0.4 0,-0.2 0,-0.3 0.1,-0.4 v 0 0 l 0.9,-0.1 c 0.8,-0.1 1.2,-0.3 1.4,-0.6 0.4,-1 0.4,-4.3 0.4,-5.9 v -0.3 -8.8 c 0,-0.9 0,-1.5 -0.7,-2.1 -0.5,-0.5 -1.3,-0.6 -2,-0.7 l -0.6,-0.1 v 0 c -0.1,-0.1 -0.2,-0.3 -0.1,-0.5 0,-0.2 0.1,-0.3 0.2,-0.3 v 0 0 c 1.3,0.1 3.1,0.1 3.6,0.1 0.5,0 1.1,0 1.5,-0.1 v 0 0 c 0.4,1 2.2,3.2 5.4,6.6 l 3.2,3.4 c 0.4,0.4 0.8,0.8 1.2,1.2 1.6,1.7 2.9,3.1 4.1,4.2 v 0 c 0.1,-0.2 0.1,-0.7 0.1,-1.2 v -6.5 c 0,-3.4 -0.2,-5.6 -0.6,-6.3 -0.2,-0.3 -0.8,-0.4 -2,-0.6 l -0.6,-0.1 v 0 c -0.2,-0.1 -0.2,-0.3 -0.2,-0.5 0,-0.2 0.1,-0.3 0.2,-0.3 v 0 0 c 1.3,0.1 2.5,0.1 3.8,0.1 1.4,0 2.2,0 3.3,-0.1 v 0 0 c 0.1,0.1 0.2,0.2 0.2,0.4 0,0.2 0,0.4 -0.1,0.5 v 0 l -0.5,0.1 c -1.1,0.2 -1.7,0.4 -1.8,0.6 -0.5,1 -0.5,4.2 -0.5,5.8 0,0.2 0,0.3 0,0.4 v 7.3 c 0,3.7 0.1,4.9 0.1,5.3 v 0 0 c 0.3,0.1 0.2,0.3 -0.3,0.3 z"
         class="st0" />
      <path
         inkscape:connector-curvature="0"
         style="fill:#ffffff"
         id="path115"
         d="m 505.6,62.000003 v 0 0 c -0.4,-0.4 -1.1,-1.3 -4.2,-4.6 l -7.5,-8 c -0.3,-0.3 -0.8,-0.9 -1.3,-1.4 -0.9,-1 -2,-2.2 -2.4,-2.6 v 0 c -0.1,0.4 -0.1,1.2 -0.1,1.9 v 6.6 c 0,3.4 0.2,5.6 0.6,6.3 0.2,0.3 0.7,0.5 1.6,0.6 l 1,0.1 v 0 c 0.1,0.1 0.2,0.3 0.1,0.5 0,0.1 -0.1,0.3 -0.2,0.3 v 0 0 c -1.6,-0.1 -2.6,-0.1 -3.8,-0.1 -1.4,0 -2.2,0 -3.3,0.1 v 0 0 c -0.1,-0.1 -0.2,-0.2 -0.2,-0.4 0,-0.2 0,-0.3 0.1,-0.4 v 0 0 l 0.9,-0.1 c 0.8,-0.1 1.2,-0.3 1.4,-0.6 0.4,-1 0.4,-4.3 0.4,-5.9 v -0.3 -8.8 c 0,-0.9 0,-1.5 -0.7,-2.1 -0.5,-0.5 -1.3,-0.6 -2,-0.7 l -0.6,-0.2 v 0 c -0.1,-0.1 -0.2,-0.3 -0.1,-0.5 0,-0.2 0.1,-0.3 0.2,-0.3 v 0 0 c 1.3,0.1 3.1,0.1 3.6,0.1 0.5,0 1.1,0 1.5,-0.1 v 0 0 c 0.4,1 2.3,3.3 5.5,6.6 v 0 l 3.1,3.3 c 0.4,0.4 0.8,0.8 1.1,1.2 1.6,1.7 2.9,3.1 4.2,4.3 v 0 c 0.1,-0.2 0.1,-0.7 0.1,-1.2 v -6.5 c 0,-3.4 -0.2,-5.6 -0.6,-6.3 -0.2,-0.3 -0.8,-0.4 -2,-0.6 l -0.6,-0.1 v 0 c -0.2,-0.1 -0.2,-0.3 -0.2,-0.5 0,-0.2 0.1,-0.3 0.2,-0.3 v 0 0 c 1.6,0.1 2.7,0.1 3.8,0.1 1.4,0 2.2,0 3.3,-0.1 v 0 0 c 0.1,0.1 0.2,0.2 0.2,0.4 0,0.2 0,0.4 -0.1,0.5 v 0 h -0.2 c -1.2,0.2 -1.7,0.4 -1.8,0.6 -0.5,1 -0.5,4.3 -0.5,5.8 v 0.4 7.3 c 0,3.7 0.1,4.9 0.1,5.3 v 0 0 c 0,0.2 -0.2,0.4 -0.6,0.4 z"
         class="st0" />
      <path
         inkscape:connector-curvature="0"
         style="fill:#ffffff"
         id="path117"
         d="m 471.4,62.000003 c -2.6,0 -4.7,-0.6 -6,-1.7 -1.7,-1.4 -2.5,-3.6 -2.5,-7.2 v -7.2 c 0,-3.1 -0.1,-3.6 -1.9,-3.8 l -0.8,-0.1 c -0.1,-0.1 -0.2,-0.2 -0.1,-0.4 0,-0.2 0.1,-0.4 0.2,-0.4 v 0 0 c 1.6,0.1 2.7,0.1 4,0.1 1.3,0 2.4,0 4,-0.1 v 0 0 c 0.1,0.1 0.2,0.3 0.2,0.4 0,0.2 0,0.3 -0.1,0.4 v 0 l -0.8,0.1 c -1.8,0.1 -1.9,0.7 -1.9,3.8 v 6.6 c 0,5.5 2.1,8.1 6.5,8.1 5.3,0 6.4,-4.4 6.4,-8 v -3.5 c 0,-2.4 -0.1,-5.4 -0.6,-6.3 -0.2,-0.3 -0.8,-0.5 -1.6,-0.6 l -0.8,-0.1 v 0 c -0.1,-0.1 -0.1,-0.3 -0.1,-0.5 0,-0.2 0.1,-0.3 0.2,-0.4 v 0 0 c 1.2,0.1 2.4,0.1 3.7,0.1 1.4,0 2.2,0 3.4,-0.1 v 0 0 c 0.1,0.1 0.2,0.2 0.2,0.3 0,0.2 0,0.4 -0.1,0.5 v 0 l -0.8,0.1 c -0.8,0.1 -1.4,0.3 -1.6,0.7 -0.4,1 -0.4,4.5 -0.4,6.2 v 3.4 c 0,3.4 -0.7,5.7 -2.3,7.3 -1.5,1.5 -3.9,2.3 -6.4,2.3 z"
         class="st0" />
      <path
         inkscape:connector-curvature="0"
         style="fill:#ffffff"
         id="path119"
         d="m 390.8,62.000003 c -4.1,0 -7.5,-1.2 -9.8,-3.4 -1.9,-1.8 -3,-4.2 -3,-6.9 0,-2.8 1,-5.3 2.9,-7.2 2.4,-2.4 5.8,-3.6 10.2,-3.6 1.9,0 3.6,0.4 4.1,0.5 h 0.2 c 0.5,0.1 1.3,0.3 1.7,0.3 0.1,0 0.1,0 0.2,0 h 0.1 v 0.1 c 0,0.9 0.2,2.3 0.5,4.4 v 0 0 c -0.1,0.2 -0.3,0.2 -0.5,0.2 -0.2,0 -0.3,0 -0.4,-0.1 v 0 0 c -0.8,-2.9 -2.9,-4.3 -6.5,-4.3 -2.9,0 -5.2,0.9 -6.8,2.6 -1.4,1.5 -2.1,3.7 -2.1,6 0,6.4 3.7,10.4 9.6,10.4 1.8,0 3.1,-0.3 3.5,-0.9 0.1,-0.1 0.3,-0.5 0.3,-1.7 v -1.2 c 0,-2.5 -0.1,-2.7 -2,-2.9 l -1.4,-0.2 c -0.2,-0.1 -0.2,-0.3 -0.2,-0.4 0,-0.2 0.1,-0.4 0.2,-0.4 v 0 0 c 0.9,0.1 2.6,0.1 4.6,0.1 1.2,0 2.3,0 3.4,-0.1 v 0 0 c 0.1,0.1 0.2,0.2 0.2,0.4 0,0.2 0,0.4 -0.2,0.5 v 0 l -0.5,0.1 c -1.3,0.1 -1.3,0.9 -1.3,2.5 v 1.7 c 0,1.3 0.2,1.9 0.7,2.1 v 0 c 0.1,0.1 0.1,0.1 0.1,0.2 0,0.1 -0.1,0.2 -0.1,0.2 v 0 0 c -0.4,0 -1.1,0.2 -1.6,0.3 -2.3,0.4 -4.5,0.7 -6.1,0.7 z"
         class="st0" />
      <path
         inkscape:connector-curvature="0"
         style="fill:#ffffff"
         id="path121"
         d="m 371.3,62.000003 v 0 0 c -0.4,-0.5 -1.2,-1.5 -4.2,-4.6 l -7.5,-8 c -0.3,-0.3 -0.8,-0.9 -1.3,-1.5 -0.9,-1 -1.9,-2.2 -2.4,-2.6 v 0 c -0.1,0.4 -0.1,1.2 -0.1,1.9 v 6.6 c 0,3.4 0.2,5.6 0.6,6.3 0.2,0.3 0.7,0.5 1.6,0.6 l 1,0.1 v 0 c 0.1,0.1 0.2,0.3 0.1,0.5 0,0.1 -0.1,0.3 -0.2,0.3 v 0 0 c -1.6,-0.1 -2.6,-0.1 -3.8,-0.1 -1.4,0 -2.2,0 -3.3,0.1 v 0 0 c -0.1,-0.1 -0.2,-0.2 -0.2,-0.4 0,-0.2 0,-0.3 0.1,-0.4 v 0 0 l 0.9,-0.1 c 0.8,-0.1 1.2,-0.3 1.4,-0.6 0.4,-1 0.4,-4.3 0.4,-5.9 v -9.1 c 0,-0.9 0,-1.5 -0.7,-2.1 -0.5,-0.5 -1.3,-0.6 -2,-0.7 l -0.6,-0.1 v 0 c -0.1,-0.1 -0.2,-0.3 -0.1,-0.5 0,-0.2 0.1,-0.3 0.2,-0.3 v 0 0 c 1.3,0.1 3.1,0.1 3.6,0.1 0.5,0 1.1,0 1.5,-0.1 v 0 0 c 0.4,1 2.3,3.3 5.5,6.7 l 3.1,3.3 c 0.4,0.5 0.8,0.9 1.2,1.3 1.6,1.7 2.9,3 4.1,4.2 v 0 c 0.1,-0.2 0.1,-0.7 0.1,-1.2 v -6.5 c 0,-3.4 -0.2,-5.6 -0.6,-6.3 -0.2,-0.3 -0.8,-0.4 -2,-0.6 l -0.6,-0.1 v 0 c -0.1,-0.1 -0.2,-0.3 -0.2,-0.5 0,-0.2 0.1,-0.3 0.2,-0.3 v 0 0 c 1.6,0.1 2.7,0.1 3.8,0.1 1.4,0 2.2,0 3.3,-0.1 v 0 0 c 0.1,0.1 0.2,0.2 0.2,0.4 0,0.2 0,0.4 -0.2,0.5 v 0 l -0.5,0.1 c -1.1,0.2 -1.7,0.4 -1.8,0.6 -0.5,1 -0.5,4.2 -0.5,5.8 0,0.2 0,0.3 0,0.4 v 7.3 c 0,3.7 0.1,4.9 0.1,5.3 v 0 0 c 0.4,0.1 0.1,0.2 -0.2,0.2 z"
         class="st0" />
      <path
         inkscape:connector-curvature="0"
         style="fill:#ffffff"
         id="path123"
         d="m 337.8,62.000003 c -2.6,0 -4.7,-0.6 -6,-1.7 -1.7,-1.4 -2.5,-3.6 -2.5,-7.2 v -7.2 c 0,-3.1 -0.1,-3.6 -1.9,-3.8 l -0.8,-0.1 c -0.1,-0.1 -0.2,-0.2 -0.1,-0.4 0,-0.2 0.1,-0.4 0.2,-0.4 v 0 0 c 1.6,0.1 2.7,0.1 4,0.1 1.3,0 2.4,0 4,-0.1 v 0 0 c 0.1,0.1 0.2,0.3 0.2,0.4 0,0.2 0,0.3 -0.1,0.4 v 0 l -0.8,0.1 c -1.8,0.1 -1.9,0.7 -1.9,3.8 v 6.6 c 0,5.5 2.1,8.1 6.5,8.1 5.3,0 6.4,-4.4 6.4,-8 v -3.5 c 0,-2.4 -0.1,-5.4 -0.6,-6.3 -0.2,-0.3 -0.8,-0.5 -1.6,-0.6 l -0.8,-0.1 v 0 c -0.1,-0.1 -0.1,-0.3 -0.1,-0.5 0,-0.2 0.1,-0.3 0.2,-0.3 v 0 0 c 1.2,0.1 2.4,0.1 3.7,0.1 1.4,0 2.2,0 3.4,-0.1 v 0 0 c 0.1,0.1 0.2,0.2 0.2,0.3 0,0.2 0,0.4 -0.1,0.5 v 0 l -0.8,0.1 c -0.8,0.1 -1.4,0.3 -1.6,0.7 -0.4,1 -0.4,4.5 -0.4,6.2 v 3.4 c 0,3.4 -0.7,5.7 -2.3,7.3 -1.6,1.4 -3.9,2.2 -6.4,2.2 z"
         class="st0" />
      <path
         inkscape:connector-curvature="0"
         style="fill:#ffffff"
         id="path125"
         d="m 255.7,62.000003 c -4.1,0 -7.5,-1.2 -9.8,-3.4 -1.9,-1.8 -3,-4.2 -3,-6.9 0,-2.8 1,-5.3 2.9,-7.2 2.4,-2.4 5.8,-3.6 10.2,-3.6 1.9,0 3.6,0.4 4.1,0.5 h 0.2 c 0.5,0.1 1.3,0.3 1.7,0.3 0.1,0 0.1,0 0.2,0 h 0.1 v 0.1 c 0,0.9 0.2,2.4 0.5,4.4 v 0 0 c -0.1,0.2 -0.3,0.2 -0.5,0.2 -0.2,0 -0.3,0 -0.4,-0.1 v 0 0 c -0.8,-2.9 -2.9,-4.3 -6.5,-4.3 -2.9,0 -5.2,0.9 -6.8,2.6 -1.4,1.5 -2.1,3.7 -2.1,6 0,6.4 3.7,10.4 9.6,10.4 1.8,0 3.1,-0.3 3.5,-0.9 0.1,-0.1 0.3,-0.5 0.3,-1.7 v -1.2 c 0,-2.5 -0.1,-2.7 -2,-2.9 l -1.4,-0.2 c -0.2,-0.1 -0.2,-0.3 -0.2,-0.4 0,-0.2 0.1,-0.4 0.2,-0.4 v 0 0 c 0.9,0.1 2.6,0.1 4.6,0.1 1.2,0 2.3,0 3.4,-0.1 v 0 0 c 0.1,0.1 0.2,0.2 0.2,0.4 0,0.2 0,0.4 -0.2,0.5 v 0 l -0.5,0.1 c -1.3,0.1 -1.3,0.9 -1.3,2.5 v 1.7 c 0,1.3 0.2,1.9 0.7,2.1 v 0 c 0.1,0.1 0.1,0.1 0.1,0.2 0,0.1 0,0.2 -0.1,0.2 v 0 0 c -0.3,0 -0.8,0.1 -1.6,0.3 -2.3,0.4 -4.5,0.7 -6.1,0.7 z"
         class="st0" />
      <path
         inkscape:connector-curvature="0"
         style="fill:#ffffff"
         id="path127"
         d="m 236.2,62.000003 v 0 0 c -0.4,-0.5 -1.1,-1.3 -4.2,-4.6 l -7.5,-8 c -0.3,-0.3 -0.8,-0.9 -1.3,-1.5 -0.9,-1 -1.9,-2.2 -2.4,-2.6 v 0 c -0.1,0.4 -0.1,1.2 -0.1,1.9 v 6.6 c 0,3.4 0.2,5.6 0.6,6.3 0.2,0.3 0.7,0.5 1.6,0.6 l 1,0.1 v 0 c 0.1,0.1 0.2,0.3 0.1,0.5 0,0.1 -0.1,0.3 -0.2,0.3 v 0 0 c -1.6,-0.1 -2.6,-0.1 -3.8,-0.1 -1.4,0 -2.2,0 -3.3,0.1 v 0 0 c -0.1,-0.1 -0.2,-0.2 -0.2,-0.4 0,-0.2 0,-0.3 0.1,-0.4 v 0 0 l 0.9,-0.1 c 0.8,-0.1 1.2,-0.3 1.4,-0.6 0.4,-1 0.4,-4.3 0.4,-5.9 v -9.1 c 0,-0.9 0,-1.5 -0.7,-2.1 -0.5,-0.5 -1.3,-0.6 -2,-0.7 l -0.6,-0.1 v 0 c -0.1,-0.1 -0.2,-0.3 -0.1,-0.5 0,-0.2 0.1,-0.3 0.2,-0.3 v 0 0 c 1.3,0.1 3.1,0.1 3.6,0.1 0.5,0 1.1,0 1.5,-0.1 v 0 0 c 0.4,1 2.2,3.2 5.4,6.6 l 3.2,3.4 c 0.4,0.4 0.8,0.8 1.2,1.2 1.6,1.7 2.9,3.1 4.1,4.2 v 0 c 0.1,-0.2 0.1,-0.7 0.1,-1.2 v -6.5 c 0,-3.4 -0.2,-5.6 -0.6,-6.3 -0.2,-0.3 -0.8,-0.4 -2,-0.6 l -0.6,-0.1 v 0 c -0.1,-0.1 -0.2,-0.3 -0.2,-0.5 0,-0.2 0.1,-0.3 0.2,-0.3 v 0 0 c 1.6,0.1 2.7,0.1 3.8,0.1 1.4,0 2.2,0 3.3,-0.1 v 0 0 c 0.1,0.1 0.2,0.2 0.2,0.4 0,0.2 0,0.4 -0.2,0.5 v 0 l -0.5,0.1 c -1.1,0.2 -1.7,0.4 -1.8,0.6 -0.5,1 -0.5,4.3 -0.5,5.8 v 0.4 7.3 c 0,3.7 0.1,4.9 0.1,5.3 v 0 0 c 0.4,0.1 0.3,0.3 -0.2,0.3 z"
         class="st0" />
      <path
         inkscape:connector-curvature="0"
         style="fill:#ffffff"
         id="path129"
         d="m 315.2,61.600003 v 0 c -0.1,-0.1 -0.2,-0.2 -0.2,-0.4 0,-0.2 0,-0.4 0.1,-0.5 v 0 0 l 0.6,-0.1 c 1.9,-0.3 1.9,-0.6 1.9,-3.7 v -4.3 c 0,-0.8 0,-0.9 -1.6,-0.9 h -9.2 c -1.6,0 -1.6,0.1 -1.6,0.9 v 4.3 c 0,3.2 0.2,3.6 1.9,3.7 l 1,0.1 c 0.1,0.1 0.2,0.2 0.1,0.4 0,0.2 -0.1,0.4 -0.2,0.4 v 0 0 c -1.8,-0.1 -2.8,-0.1 -4.1,-0.1 -0.9,0 -1.7,0 -2.5,0.1 -0.4,0 -0.8,0 -1.2,0 v 0 0 c -0.1,0 -0.2,-0.2 -0.2,-0.3 0,-0.2 0,-0.4 0.1,-0.5 v 0 l 0.6,-0.1 c 1.8,-0.3 1.8,-0.6 1.8,-3.7 v -10.9 c 0,-3.2 -0.2,-3.7 -1.8,-3.8 l -0.9,-0.1 c -0.1,-0.1 -0.2,-0.2 -0.1,-0.4 0,-0.2 0.1,-0.4 0.2,-0.5 v 0 0 c 0.6,0 1.1,0 1.6,0 0.8,0 1.6,0 2.4,0 1.2,0 2.3,0 3.7,-0.1 v 0 0 c 0.1,0.1 0.2,0.3 0.2,0.5 0,0.2 0,0.3 -0.1,0.4 v 0 l -0.6,0.1 c -1.8,0.2 -1.9,0.6 -1.9,3.8 v 3.5 c 0,0.9 0,0.9 1.6,0.9 h 9.2 c 1.6,0 1.6,0 1.6,-0.9 v -3.5 c 0,-3.2 -0.1,-3.6 -1.9,-3.8 l -0.6,-0.1 c -0.1,-0.1 -0.1,-0.2 -0.1,-0.4 0,-0.2 0.1,-0.4 0.2,-0.5 v 0 0 c 1.4,0.1 2.5,0.1 3.9,0.1 1.2,0 2.2,0 3.8,-0.1 v 0 0 c 0.1,0.1 0.2,0.3 0.2,0.5 0,0.2 0,0.3 -0.1,0.4 v 0 l -0.7,0.1 c -1.8,0.2 -1.9,0.6 -1.9,3.8 v 10.9 c 0,3.2 0.1,3.5 1.9,3.7 l 0.8,0.1 c 0.1,0.1 0.2,0.2 0.1,0.4 0,0.2 -0.1,0.4 -0.2,0.4 v 0 0 c -1.5,-0.1 -2.6,-0.1 -3.9,-0.1 -1.3,0.2 -2.4,0.3 -3.9,0.3 z"
         class="st0" />
      <path
         inkscape:connector-curvature="0"
         style="fill:#ffffff"
         id="path131"
         d="m 182.1,61.600003 v 0 c -0.1,-0.1 -0.2,-0.2 -0.2,-0.4 0,-0.2 0,-0.4 0.1,-0.5 v 0 l 0.6,-0.1 c 1.9,-0.3 1.9,-0.6 1.9,-3.7 v -4.3 c 0,-0.8 0,-0.9 -1.6,-0.9 h -9.2 c -1.6,0 -1.6,0.1 -1.6,0.9 v 4.3 c 0,3.2 0.2,3.6 1.9,3.7 l 1,0.1 c 0.1,0.1 0.2,0.2 0.1,0.4 0,0.2 -0.1,0.4 -0.2,0.4 v 0 0 c -1.8,-0.1 -2.8,-0.1 -4.1,-0.1 -0.9,0 -1.7,0 -2.5,0.1 -0.4,0 -0.8,0 -1.2,0 v 0 0 c -0.1,0 -0.2,-0.2 -0.2,-0.3 0,-0.2 0,-0.4 0.1,-0.5 v 0 l 0.6,-0.1 c 1.8,-0.3 1.8,-0.6 1.8,-3.7 v -10.9 c 0,-3.2 -0.2,-3.7 -1.8,-3.8 l -0.9,-0.1 c -0.1,-0.1 -0.2,-0.2 -0.1,-0.4 0,-0.2 0.1,-0.4 0.2,-0.5 v 0 0 c 0.6,0 1.1,0 1.6,0 0.8,0 1.6,0 2.4,0 1.2,0 2.3,0 3.7,-0.1 v 0 0 c 0.1,0.1 0.2,0.3 0.2,0.5 0,0.2 0,0.3 -0.1,0.4 v 0 l -0.6,0.1 c -1.8,0.2 -1.9,0.6 -1.9,3.8 v 3.5 c 0,0.9 0,0.9 1.6,0.9 h 9.2 c 1.6,0 1.6,0 1.6,-0.9 v -3.5 c 0,-3.2 -0.1,-3.6 -1.9,-3.8 l -0.6,-0.1 c -0.1,-0.1 -0.2,-0.2 -0.1,-0.4 0,-0.2 0.1,-0.4 0.2,-0.5 v 0 0 c 1.4,0.1 2.5,0.1 3.9,0.1 1.2,0 2.2,0 3.8,-0.1 v 0 0 c 0.1,0.1 0.2,0.3 0.2,0.4 0,0.2 0,0.3 -0.1,0.4 v 0 l -0.7,0.1 c -1.8,0.2 -1.9,0.6 -1.9,3.8 v 10.9 c 0,3.2 0.1,3.5 1.9,3.7 l 0.8,0.1 c 0.1,0.1 0.2,0.2 0.1,0.4 0,0.2 -0.1,0.4 -0.2,0.4 v 0 0 c -1.5,-0.1 -2.6,-0.1 -3.9,-0.1 -1.2,0.3 -2.3,0.4 -3.9,0.4 z"
         class="st0" />
      <path
         inkscape:connector-curvature="0"
         style="fill:#ffffff"
         id="path133"
         d="m 587.3,61.600003 v 0 c -1.6,-0.1 -2.7,-0.1 -4,-0.1 -1.4,0 -2.5,0 -4.1,0.1 v 0 0 c -0.1,0 -0.2,-0.2 -0.2,-0.3 0,-0.2 0,-0.4 0.1,-0.5 v 0 l 0.8,-0.1 c 1.9,-0.2 1.9,-0.6 1.9,-3.8 v -10.8 c 0,-3.3 -0.1,-3.7 -1.9,-3.8 l -0.8,-0.1 c -0.1,-0.1 -0.2,-0.2 -0.1,-0.4 0,-0.2 0.1,-0.4 0.2,-0.5 v 0 0 c 1.6,0.1 2.7,0.1 4.1,0.1 1.3,0 2.4,0 4,-0.1 v 0 0 c 0.1,0.1 0.2,0.3 0.2,0.5 0,0.2 0,0.3 -0.1,0.4 v 0 l -0.8,0.1 c -1.8,0.1 -1.9,0.6 -1.9,3.8 v 10.8 c 0,3.2 0.1,3.6 1.9,3.8 l 0.8,0.1 c 0.1,0.1 0.2,0.2 0.1,0.4 0,0.2 -0.1,0.4 -0.2,0.4 z"
         class="st0" />
      <path
         inkscape:connector-curvature="0"
         style="fill:#ffffff"
         id="path135"
         d="m 569.7,61.600003 v 0 c -2,-0.1 -3,-0.1 -4.2,-0.1 -1.3,0 -2.4,0 -4.5,0.1 v 0 0 c -0.1,-0.1 -0.2,-0.2 -0.2,-0.4 0,-0.2 0.1,-0.4 0.2,-0.4 v 0 l 1.2,-0.1 c 1.8,-0.1 1.9,-0.5 1.9,-3.7 v -13.6 c 0,-0.9 0,-0.9 -0.9,-0.9 h -1.8 c -1.5,0 -3.2,0.1 -3.9,0.7 -0.8,0.7 -1.1,1.4 -1.4,2.1 v 0 0 c -0.1,0.1 -0.2,0.1 -0.3,0.1 -0.3,0 -0.5,-0.1 -0.6,-0.3 v 0 0 c 0.5,-1.4 1,-3.3 1.2,-4.5 v 0 0 c 0.1,0 0.2,-0.1 0.4,-0.1 0.1,0 0.2,0 0.3,0.1 v 0 0 c 0.2,0.9 1,0.9 2.4,0.9 h 13.3 c 1.7,0 2,0 2.5,-0.8 v 0 0 c 0.1,0 0.1,0 0.2,0 0.2,0 0.4,0 0.4,0.2 v 0 0 c -0.4,1.3 -0.6,3.7 -0.5,4.6 v 0 0 c -0.1,0.2 -0.3,0.2 -0.5,0.2 -0.2,0 -0.4,-0.1 -0.4,-0.1 v 0 0 c -0.1,-0.5 -0.3,-1.8 -0.8,-2.2 -0.7,-0.5 -1.9,-0.8 -3.7,-0.8 h -2.3 c -0.4,0 -0.7,0 -0.8,0.1 -0.1,0.1 -0.1,0.3 -0.1,0.8 v 13.6 c 0,3.2 0.1,3.6 1.9,3.7 l 1.1,0.1 c 0.1,0.1 0.2,0.2 0.1,0.4 0,0.1 -0.1,0.3 -0.2,0.3 z"
         class="st0" />
      <path
         inkscape:connector-curvature="0"
         style="fill:#ffffff"
         id="path137"
         d="m 601.9,62.000003 c -7.6,0 -11.5,-5.2 -11.5,-10.3 0,-3 1.2,-5.7 3.3,-7.7 2.1,-2 5,-3.1 8.2,-3.1 3.5,0 6.4,1.1 8.4,3.2 1.8,1.9 2.8,4.5 2.8,7.2 0,3 -1.2,5.7 -3.3,7.6 -2,2 -4.8,3.1 -7.9,3.1 z m -0.5,-20 c -3.5,0 -7.6,2.3 -7.6,8.8 0,2.5 0.7,5 1.9,6.8 1.5,2.3 3.8,3.5 6.7,3.5 2,0 3.8,-0.7 5.2,-2.1 1.5,-1.5 2.3,-3.8 2.3,-6.6 -0.1,-4.9 -2.3,-10.4 -8.5,-10.4 z"
         class="st0" />
      <path
         inkscape:connector-curvature="0"
         style="fill:#ffffff"
         id="path139"
         d="m 446.1,62.000003 c -7.6,0 -11.5,-5.2 -11.5,-10.3 0,-3 1.2,-5.7 3.3,-7.7 2.1,-2 5,-3.1 8.2,-3.1 3.5,0 6.4,1.1 8.4,3.2 1.8,1.9 2.8,4.5 2.8,7.2 0,3 -1.2,5.7 -3.3,7.6 -2.1,2 -4.9,3.1 -7.9,3.1 z m -0.6,-20 c -3.5,0 -7.6,2.3 -7.6,8.8 0,2.5 0.7,5 1.9,6.8 1.5,2.3 3.8,3.5 6.7,3.5 2,0 3.9,-0.7 5.2,-2.1 1.5,-1.5 2.3,-3.8 2.3,-6.6 0,-4.9 -2.2,-10.4 -8.5,-10.4 z"
         class="st0" />
      <path
         inkscape:connector-curvature="0"
         style="fill:#ffffff"
         id="path141"
         d="m 521.6,61.800003 c -1.2,0 -2.4,-0.1 -3.4,-0.1 -0.7,-0.1 -1.4,-0.1 -1.9,-0.1 -1.4,0 -2.6,0 -4,0.1 v 0 0 c -0.1,0 -0.2,-0.2 -0.2,-0.3 0,-0.2 0,-0.4 0.1,-0.5 v 0 0 l 0.7,-0.1 c 1.8,-0.2 1.9,-0.5 1.9,-3.7 v -11.5 c 0,-2.2 -0.2,-2.7 -1.5,-2.9 l -0.7,-0.1 c -0.2,-0.1 -0.2,-0.3 -0.2,-0.5 0,-0.2 0.1,-0.3 0.3,-0.4 v 0 c 3,-0.2 5.6,-0.2 8.1,-0.2 3.2,0 5.2,0.3 7.1,0.9 2.1,0.7 3.8,1.9 4.9,3.6 1.1,1.5 1.6,3.4 1.6,5.4 0,3.9 -2.1,7.2 -5.7,9.1 -2.3,1 -5.1,1.3 -7.1,1.3 z m -0.5,-19.4 c -2,0 -3,0.3 -3.2,0.4 -0.2,0.2 -0.3,1 -0.3,2.3 v 11.1 c 0,1.6 0.1,2.6 0.6,3.3 0.7,0.9 1.8,1.2 3.9,1.2 5.8,0 9,-3.4 9,-9.4 0,-1.3 -0.2,-3.7 -1.9,-5.7 -1.7,-2.2 -4.4,-3.2 -8.1,-3.2 z"
         class="st0" />
      <path
         inkscape:connector-curvature="0"
         style="fill:#ffffff"
         id="path143"
         d="m 556.7,61.600003 v 0 c -1.4,-0.1 -2.6,-0.1 -3.9,-0.1 -1.2,0 -2.3,0 -3.1,0.1 -0.2,0 -0.4,0 -0.6,0 v 0 0 c -0.1,-0.1 -0.2,-0.2 -0.2,-0.4 0,-0.2 0.1,-0.4 0.2,-0.4 v 0 l 0.9,-0.1 c 0.7,-0.1 1.1,-0.2 1.1,-0.5 0,-0.3 -0.1,-0.8 -0.4,-1.6 l -1.4,-4.1 c -0.2,-0.6 -0.3,-0.7 -1.3,-0.7 h -4.9 c -0.8,0 -1,0.1 -1.2,0.7 l -1.1,3.2 c -0.5,1.3 -0.7,2.2 -0.7,2.5 0,0.3 0.1,0.5 0.9,0.6 l 1.1,0.1 v 0 c 0.1,0.1 0.2,0.3 0.2,0.5 0,0.2 -0.1,0.3 -0.3,0.4 v 0 0 c -0.6,0 -1.3,-0.1 -2.3,-0.1 -0.3,0 -0.7,0 -1.1,0 -0.8,0 -1.7,0 -2.4,0.1 -0.2,0 -0.5,0 -0.7,0 v 0 0 c -0.1,-0.1 -0.2,-0.2 -0.2,-0.4 0,-0.2 0,-0.3 0.1,-0.4 v 0 0 l 1.1,-0.1 c 0.9,-0.1 1.5,-0.5 1.9,-1.5 0.2,-0.4 0.4,-0.9 0.6,-1.4 0.5,-1.2 1.3,-2.9 2.2,-5.3 l 3.3,-8.2 c 0.5,-1.1 0.6,-1.7 0.5,-2.1 v 0 0 c 0.7,-0.2 1.3,-0.7 1.6,-1.1 v 0 0 c 0.3,0 0.5,0.1 0.5,0.3 0.4,1.2 0.8,2.4 1.2,3.6 l 0.2,0.5 4.4,12.2 c 0.9,2.6 1.3,3 2.7,3.2 l 0.9,0.1 c 0.1,0.1 0.2,0.2 0.2,0.4 0.2,-0.3 0.2,-0.1 0,0 z m -10.9,-16.9 c -0.1,0.2 -0.4,0.9 -0.8,1.8 l -2,5.3 c -0.1,0.3 -0.2,0.5 -0.1,0.6 0.1,0.1 0.3,0.1 0.7,0.1 h 4 c 0.4,0 0.7,0 0.8,-0.1 0.1,-0.1 0,-0.3 -0.1,-0.7 l -1.7,-4.9 c -0.4,-0.9 -0.6,-1.7 -0.8,-2.1 z"
         class="st0" />
      <path
         inkscape:connector-curvature="0"
         style="fill:#ffffff"
         id="path145"
         d="m 213.5,61.600003 v 0 c -1.4,-0.1 -2.6,-0.1 -3.9,-0.1 -1.2,0 -2.3,0 -3.1,0.1 -0.2,0 -0.4,0 -0.6,0 v 0 0 c -0.1,-0.1 -0.2,-0.2 -0.2,-0.4 0,-0.2 0.1,-0.4 0.2,-0.4 v 0 l 0.9,-0.1 c 0.7,-0.1 1.1,-0.2 1.1,-0.5 0,-0.3 -0.1,-0.8 -0.4,-1.6 l -1.4,-4.1 c -0.2,-0.6 -0.3,-0.7 -1.3,-0.7 h -4.9 c -0.8,0 -1,0.1 -1.2,0.7 l -1.1,3.2 c -0.5,1.3 -0.7,2.2 -0.7,2.5 0,0.3 0.1,0.5 0.9,0.6 l 1.1,0.1 v 0 c 0.1,0.1 0.2,0.3 0.2,0.5 0,0.2 -0.1,0.3 -0.3,0.4 v 0 0 c -0.6,0 -1.3,-0.1 -2.2,-0.1 -0.3,0 -0.7,0 -1.1,0 -0.8,0 -1.7,0 -2.4,0.1 -0.2,0 -0.5,0 -0.7,0 v 0 0 c -0.1,-0.1 -0.2,-0.2 -0.2,-0.4 0,-0.2 0,-0.3 0.1,-0.4 v 0 0 l 1.1,-0.1 c 0.9,-0.1 1.5,-0.5 1.9,-1.5 0.2,-0.4 0.4,-0.9 0.6,-1.5 0.5,-1.2 1.3,-2.9 2.2,-5.3 l 3.3,-8.2 c 0.5,-1.1 0.6,-1.7 0.5,-2.1 v 0 0 c 0.7,-0.2 1.3,-0.7 1.6,-1.1 v 0 0 c 0.3,0 0.5,0.1 0.5,0.3 0.4,1.2 0.8,2.4 1.2,3.6 l 4.6,12.7 c 0.9,2.6 1.3,3 2.7,3.2 l 0.9,0.1 c 0.1,0.1 0.2,0.2 0.2,0.4 0.1,-0.2 0.1,0 -0.1,0.1 z m -10.9,-16.9 c -0.1,0.2 -0.4,0.9 -0.8,1.8 l -2,5.3 c -0.1,0.3 -0.2,0.5 -0.1,0.6 0.1,0.1 0.3,0.1 0.7,0.1 h 4 c 0.4,0 0.7,0 0.8,-0.1 0.1,-0.1 0,-0.3 -0.1,-0.7 l -1.7,-5 c -0.4,-0.8 -0.7,-1.6 -0.8,-2 z"
         class="st0" />
      <path
         inkscape:connector-curvature="0"
         style="fill:#ffffff"
         id="path147"
         d="m 145.9,62.700003 c 0.8,0.5 3.2,1.5 6.7,1.5 2.7,0 5.1,-0.7 6.7,-2.1 1.6,-1.3 2.5,-3.2 2.5,-5.4 0,-3.1 -1.8,-5.7 -5.4,-7.8 l -3.5,-2 c -1.4,-0.8 -3.7,-2.6 -3.7,-5.1 0,-1.4 0.5,-4.6 5.2,-4.6 4.1,0 5.3,2.5 6,4.7 0.1,0.1 0.2,0.1 0.4,0.1 0.3,0 0.5,-0.1 0.6,-0.2 0,-1.8 -0.4,-4 -0.8,-4.9 -0.3,0 -0.9,-0.1 -1.5,-0.2 -1,-0.3 -2.6,-0.5 -4,-0.5 -2.7,0 -4.9,0.7 -6.5,2.1 -1.5,1.2 -2.3,3 -2.3,4.9 0,3.4 2.5,5.7 4.7,7 l 4.1,2.5 c 3.2,1.9 3.6,3.9 3.6,5.8 0,2.4 -1.7,4.8 -5.5,4.8 -4.6,0 -6.6,-3.3 -7.5,-6.1 -0.1,-0.1 -0.2,-0.1 -0.3,-0.1 -0.2,0 -0.5,0.1 -0.6,0.2 0.1,1.7 0.6,4.5 1.1,5.4 z"
         class="st0" />
      <path
         inkscape:connector-curvature="0"
         style="fill:#ffffff"
         id="path149"
         d="m 279.9,62.700003 c 0.8,0.5 3.2,1.5 6.7,1.5 2.7,0 5.1,-0.7 6.7,-2.1 1.6,-1.3 2.5,-3.2 2.5,-5.4 0,-3.1 -1.8,-5.7 -5.4,-7.8 l -3.5,-2 c -1.4,-0.8 -3.7,-2.6 -3.7,-5.1 0,-1.4 0.5,-4.6 5.2,-4.6 4.1,0 5.3,2.5 6,4.7 0.1,0.1 0.2,0.1 0.4,0.1 0.3,0 0.5,-0.1 0.6,-0.2 0,-1.8 -0.4,-4 -0.8,-4.9 -0.3,0 -0.9,-0.1 -1.5,-0.2 -1,-0.3 -2.6,-0.5 -4,-0.5 -2.7,0 -4.9,0.7 -6.5,2.1 -1.5,1.2 -2.3,3 -2.3,4.9 0,3.4 2.5,5.7 4.7,7 l 4.1,2.5 c 3.2,1.9 3.6,3.9 3.6,5.8 0,2.4 -1.7,4.8 -5.5,4.8 -4.6,0 -6.6,-3.3 -7.5,-6.1 -0.1,-0.1 -0.2,-0.1 -0.3,-0.1 -0.2,0 -0.5,0.1 -0.6,0.2 0,1.7 0.6,4.5 1.1,5.4 z"
         class="st0" />
      <path
         inkscape:connector-curvature="0"
         style="fill:#ffffff"
         id="path151"
         d="m 417.6,63.500003 c 1.7,0 3.1,0 5.8,0.1 0.1,-0.1 0.2,-0.3 0.2,-0.5 0,-0.2 0,-0.4 -0.1,-0.4 l -1.5,-0.1 c -2.6,-0.2 -2.7,-0.9 -2.7,-5.2 v -5.7 c 0,-1.1 0.2,-1.2 1.5,-1.2 h 3 c 1.6,0 2.7,0 3.4,0.2 0.9,0.3 1.2,1 1.4,1.6 l 0.4,1.6 c 0.1,0.1 0.3,0.2 0.6,0.2 0.2,0 0.4,-0.1 0.5,-0.2 0,-0.4 0,-0.9 -0.1,-1.5 0,-0.7 -0.1,-1.6 -0.1,-2.4 0,-0.8 0.1,-1.7 0.1,-2.5 0,-0.6 0.1,-1.2 0.1,-1.6 -0.1,-0.1 -0.3,-0.1 -0.5,-0.1 -0.2,0 -0.4,0.1 -0.5,0.2 l -0.4,1.6 c -0.3,1.1 -0.6,1.3 -1.1,1.5 -0.5,0.2 -1.8,0.2 -3.7,0.2 h -3 c -1.3,0 -1.5,0 -1.5,-1.2 v -8.6 c 0,-1.6 0,-1.7 1.4,-1.7 h 2.6 c 1.8,0 3.3,0 4.2,0.2 2.3,0.6 2.7,2.2 3.1,3.9 0.1,0.1 0.2,0.1 0.4,0.1 0.2,0 0.5,-0.1 0.6,-0.2 -0.1,-1.5 -0.1,-3.4 -0.1,-5.3 -0.7,0.1 -3.1,0.1 -5.8,0.1 h -8 c -1.6,0 -3.1,0 -5,-0.1 -0.1,0.1 -0.2,0.3 -0.2,0.5 0,0.2 0,0.4 0.1,0.4 l 0.7,0.1 c 2.6,0.3 2.7,0.9 2.7,5.2 v 14.7 c 0,4.3 -0.1,4.9 -2.7,5.2 l -1.1,0.1 c -0.1,0.1 -0.2,0.3 -0.1,0.5 0,0.2 0.1,0.3 0.2,0.4 1.7,0 3.3,-0.1 5.2,-0.1 z"
         class="st0" />
      <g
         transform="translate(-103.6,-232.8)"
         style="fill:#ffffff"
         id="g161">
        <path
           inkscape:connector-curvature="0"
           style="fill:#ffffff"
           id="path153"
           d="m 222.4,296.6 c 0,30.4 -24.7,55 -55.1,55 -30.4,0 -55,-24.7 -55,-55 0,-30.4 24.7,-55.1 55,-55.1 30.4,0.1 55.1,24.8 55.1,55.1 m 8.8,0 c 0,-17.1 -6.6,-33.1 -18.7,-45.1 -12.1,-12.1 -28.1,-18.7 -45.1,-18.7 -17.1,0 -33.1,6.6 -45.1,18.7 -12.1,12.1 -18.7,28.1 -18.7,45.1 0,17.1 6.6,33.1 18.7,45.1 12.1,12.1 28.1,18.7 45.1,18.7 17.1,0 33.1,-6.6 45.1,-18.7 12,-12 18.7,-28 18.7,-45.1"
           class="st1" />
        <path
           inkscape:connector-curvature="0"
           style="fill:#ffffff"
           id="path155"
           d="m 202.5,296.6 c 0,19.4 -15.8,35.1 -35.1,35.1 -19.4,0 -35.1,-15.8 -35.1,-35.1 0,-19.4 15.8,-35.2 35.1,-35.2 19.3,0.1 35.1,15.9 35.1,35.2 m 11.9,0.3 c -0.2,-5.6 -0.8,-8.8 -2.4,-11.3 -1.7,-2.7 -4.6,-5.4 -6.1,-6 -1.5,-0.6 -3.1,-1.3 -7.4,-0.9 2.5,-3.5 2.7,-5.2 2.9,-6.8 0.2,-1.6 -0.6,-5.5 -2.2,-8.3 -1.4,-2.6 -3.9,-4.7 -8.6,-7.7 -4.4,-2.8 -13.3,-6.2 -23.3,-6.1 -9.9,0.1 -18.9,3.4 -23.3,6.1 -4.8,3 -7.2,5.1 -8.6,7.7 -1.5,2.8 -2.4,6.7 -2.2,8.3 0.2,1.6 0.4,3.4 2.9,6.8 -4.2,-0.4 -5.9,0.2 -7.4,0.9 -1.5,0.6 -4.5,3.3 -6.1,6 -1.6,2.6 -2.1,5.7 -2.4,11.3 -0.2,5.2 1.3,14.7 6.3,23.2 5,8.6 12.3,14.7 16.9,17.1 5,2.6 8,3.7 11,3.6 3.2,-0.1 7,-1.3 8.3,-2.3 1.3,-0.9 2.7,-2 4.5,-6 1.7,3.9 3.2,5 4.4,5.9 1.3,1 5.1,2.2 8.3,2.3 3,0.1 6,-1 11,-3.6 4.6,-2.4 12,-8.5 16.9,-17.1 5.2,-8.5 6.8,-17.9 6.6,-23.1"
           class="st1" />
        <path
           inkscape:connector-curvature="0"
           style="fill:#ffffff"
           id="path157"
           d="m 162.9,293.6 4.3,-6.1 3.3,2.3 -4.2,6.1 z m 17.5,-14.4 -17.2,-12.1 -21,29.9 22.5,15.7 -1.9,2.7 -25.5,-17.8 3.1,9.6 23.8,16.7 8.3,-11.9 -7.2,-5 13,-18.6 -12.8,-9 -11,15.7 8.2,5.7 -1.9,2.8 -10.5,-7.4 14.7,-21 12.2,8.5 z"
           class="st1" />
        <path
           inkscape:connector-curvature="0"
           style="fill:#ffffff"
           id="path159"
           d="m 187.8,301.1 -5,-3.5 -4.4,6.3 v 0.1 c 0,0.1 -0.1,0.3 0,0.4 0.1,0.2 0.2,0.3 0.5,0.6 0,0 0.1,0.1 0.1,0.1 2.4,3.1 3.1,5.8 3.2,6.3 1.1,5.8 0.2,9.4 0.2,9.4 -0.1,0.2 -0.2,0.3 -0.2,0.4 -0.2,0 -0.9,0.1 -1.5,0.1 -0.4,0 -0.6,0 -0.7,0 0,-0.1 -0.1,-0.2 -0.1,-0.3 v -0.1 c -1.3,-5.6 -2.5,-8.4 -3.2,-9.9 v -0.1 c -0.6,-1.5 -3.8,-5.7 -4.1,-6.2 -0.7,-1.6 0.5,-3.3 0.5,-3.3 l 8.1,-11.5 4.7,3.3 1.9,-2.7 -7.5,-5.3 3.1,-4.4 12.8,9 z"
           class="st1" />
      </g>
    </g>
  </g>
  <style
     id="style109"
     type="text/css">
	.st0{fill:#646363;}
	.st1{fill:#8C8C8B;}
</style>
</svg>
